<svg width="159" height="107" viewBox="0 0 159 107" fill="none" xmlns="http://www.w3.org/2000/svg">
<path d="M13.97 18.385H31.735V26.8H13.97V18.385ZM14.74 40H3.85V1.5H34.045V9.915H14.74V40ZM50.1381 40V1.5H61.0281V31.365H79.3981V40H50.1381ZM113.532 40.77C110.452 40.77 107.61 40.275 105.007 39.285C102.403 38.295 100.13 36.9017 98.1866 35.105C96.2799 33.2717 94.7949 31.145 93.7316 28.725C92.6683 26.305 92.1366 23.6467 92.1366 20.75C92.1366 17.8533 92.6683 15.195 93.7316 12.775C94.7949 10.355 96.2799 8.24666 98.1866 6.45C100.13 4.61667 102.403 3.205 105.007 2.215C107.61 1.225 110.452 0.729997 113.532 0.729997C116.648 0.729997 119.49 1.225 122.057 2.215C124.66 3.205 126.915 4.61667 128.822 6.45C130.728 8.24666 132.213 10.355 133.277 12.775C134.377 15.195 134.927 17.8533 134.927 20.75C134.927 23.6467 134.377 26.3233 133.277 28.78C132.213 31.2 130.728 33.3083 128.822 35.105C126.915 36.9017 124.66 38.295 122.057 39.285C119.49 40.275 116.648 40.77 113.532 40.77ZM113.532 31.75C114.998 31.75 116.355 31.4933 117.602 30.98C118.885 30.4667 119.985 29.7333 120.902 28.78C121.855 27.79 122.588 26.6167 123.102 25.26C123.652 23.9033 123.927 22.4 123.927 20.75C123.927 19.0633 123.652 17.56 123.102 16.24C122.588 14.8833 121.855 13.7283 120.902 12.775C119.985 11.785 118.885 11.0333 117.602 10.52C116.355 10.0067 114.998 9.75 113.532 9.75C112.065 9.75 110.69 10.0067 109.407 10.52C108.16 11.0333 107.06 11.785 106.107 12.775C105.19 13.7283 104.457 14.8833 103.907 16.24C103.393 17.56 103.137 19.0633 103.137 20.75C103.137 22.4 103.393 23.9033 103.907 25.26C104.457 26.6167 105.19 27.79 106.107 28.78C107.06 29.7333 108.16 30.4667 109.407 30.98C110.69 31.4933 112.065 31.75 113.532 31.75ZM13.365 107L0.88 68.5H12.1L22.605 101.83H16.94L27.995 68.5H38.005L48.455 101.83H43.01L53.845 68.5H64.24L51.755 107H40.095L31.185 78.675H34.32L25.025 107H13.365ZM89.152 83.405H107.027V91.545H89.152V83.405ZM89.922 98.585H110.052V107H79.142V68.5H109.337V76.915H89.922V98.585ZM137.105 83.405H154.98V91.545H137.105V83.405ZM137.875 98.585H158.005V107H127.095V68.5H157.29V76.915H137.875V98.585Z" fill="black"/>
</svg>
