<svg width="302" height="41" viewBox="0 0 302 41" fill="none" xmlns="http://www.w3.org/2000/svg">
<path d="M10.97 18.385H28.735V26.8H10.97V18.385ZM11.74 40H0.85V1.5H31.045V9.915H11.74V40ZM47.1381 40V1.5H58.0281V31.365H76.3981V40H47.1381ZM110.532 40.77C107.452 40.77 104.61 40.275 102.007 39.285C99.4033 38.295 97.1299 36.9017 95.1866 35.105C93.2799 33.2717 91.7949 31.145 90.7316 28.725C89.6683 26.305 89.1366 23.6467 89.1366 20.75C89.1366 17.8533 89.6683 15.195 90.7316 12.775C91.7949 10.355 93.2799 8.24666 95.1866 6.45C97.1299 4.61667 99.4033 3.205 102.007 2.215C104.61 1.225 107.452 0.729997 110.532 0.729997C113.648 0.729997 116.49 1.225 119.057 2.215C121.66 3.205 123.915 4.61667 125.822 6.45C127.728 8.24666 129.213 10.355 130.277 12.775C131.377 15.195 131.927 17.8533 131.927 20.75C131.927 23.6467 131.377 26.3233 130.277 28.78C129.213 31.2 127.728 33.3083 125.822 35.105C123.915 36.9017 121.66 38.295 119.057 39.285C116.49 40.275 113.648 40.77 110.532 40.77ZM110.532 31.75C111.998 31.75 113.355 31.4933 114.602 30.98C115.885 30.4667 116.985 29.7333 117.902 28.78C118.855 27.79 119.588 26.6167 120.102 25.26C120.652 23.9033 120.927 22.4 120.927 20.75C120.927 19.0633 120.652 17.56 120.102 16.24C119.588 14.8833 118.855 13.7283 117.902 12.775C116.985 11.785 115.885 11.0333 114.602 10.52C113.355 10.0067 111.998 9.75 110.532 9.75C109.065 9.75 107.69 10.0067 106.407 10.52C105.16 11.0333 104.06 11.785 103.107 12.775C102.19 13.7283 101.457 14.8833 100.907 16.24C100.393 17.56 100.137 19.0633 100.137 20.75C100.137 22.4 100.393 23.9033 100.907 25.26C101.457 26.6167 102.19 27.79 103.107 28.78C104.06 29.7333 105.16 30.4667 106.407 30.98C107.69 31.4933 109.065 31.75 110.532 31.75ZM156.856 40L144.371 1.5H155.591L166.096 34.83H160.431L171.486 1.5H181.496L191.946 34.83H186.501L197.336 1.5H207.731L195.246 40H183.586L174.676 11.675H177.811L168.516 40H156.856ZM232.643 16.405H250.518V24.545H232.643V16.405ZM233.413 31.585H253.543V40H222.633V1.5H252.828V9.915H233.413V31.585ZM280.596 16.405H298.471V24.545H280.596V16.405ZM281.366 31.585H301.496V40H270.586V1.5H300.781V9.915H281.366V31.585Z" fill="black"/>
</svg>
